<svg xmlns="http://www.w3.org/2000/svg" width="192" height="192" viewBox="0 0 256 256">
  <rect width="256" height="256" rx="48" fill="#2563eb"/>
  <path d="M216,40H40A16,16,0,0,0,24,56V200a16,16,0,0,0,16,16H216a16,16,0,0,0,16-16V56A16,16,0,0,0,216,40Zm0,160H40V56H216Z" fill="#ffffff" opacity="0.2"/>
  <path d="M104,104H72a8,8,0,0,0-8,8v48a8,8,0,0,0,8,8h32a8,8,0,0,0,8-8V112A8,8,0,0,0,104,104Zm-8,48H80V120h16Z" fill="#ffffff"/>
  <path d="M184,136H152a8,8,0,0,0,0,16h32a8,8,0,0,0,0-16Z" fill="#ffffff"/>
  <path d="M184,104H152a8,8,0,0,0,0,16h32a8,8,0,0,0,0-16Z" fill="#ffffff"/>
  <path d="M233.54,142.23a8,8,0,0,0-8-2,88.08,88.08,0,0,1-109.78-109.78,8,8,0,0,0-10-10,104.84,104.84,0,0,0-36.86,173.68A104.84,104.84,0,0,0,173.68,220.56a8,8,0,0,0,10-10,88.08,88.08,0,0,1,109.78-109.78A8,8,0,0,0,233.54,142.23Z" fill="#ffffff" opacity="0.15"/>
</svg>
